<ttFont>
<head>
    <!-- Most of this table will be recalculated by the compiler -->
    <tableVersion value="1.0"/>
    <fontRevision value="2.01999"/>
    <checkSumAdjustment value="0x1c79fa8c"/>
    <magicNumber value="0x5f0f3cf5"/>
    <flags value="00000000 00000011"/>
    <unitsPerEm value="1000"/>
    <created value="Mon Sep 17 16:48:31 2018"/>
    <modified value="Mon Sep 17 16:48:31 2018"/>
    <xMin value="-454"/>
    <yMin value="-293"/>
    <xMax value="2159"/>
    <yMax value="968"/>
    <macStyle value="00000000 00000000"/>
    <lowestRecPPEM value="3"/>
    <fontDirectionHint value="2"/>
    <indexToLocFormat value="0"/>
    <glyphDataFormat value="0"/>
  </head>
          <CharString index="0">
            203 -106 callsubr
            return
          </CharString>
          <CharString index="1">
            367 rmoveto
            -107 callgsubr
            return
          </CharString>
          <CharString index="2">
            -36 55 rlineto
            -27 -30 -39 -22 -45 hhcurveto
            -89 -61 75 111 112 64 76 88 39 30 -18 -25 28 hvcurveto
            42 54 -102 callsubr
            return
          </CharString>
          <CharString index="3">
            -21 200 67 321 68 return
          </CharString>
          <CharString index="4">
            21 -104 callsubr
            return
          </CharString>
          <CharString index="5">
            rlineto
            31 -34 -44 26 -64 hhcurveto
            -125 -109 -93 -163 return
          </CharString>
          <CharString index="6">
            69 -36 -21 429 69 return
          </CharString>
          <CharString index="7">
            71 206 70 return
          </CharString>
          <CharString index="8">
            119 -93.5 68 return
          </CharString>
          <CharString index="9">
            45 hhcurveto
            -14 69 rmoveto
            -32 return
          </CharString>
          <CharString index="10">
            -98 callsubr
            -44 14 37 -43 hvcurveto
            return
          </CharString>
        <CharString name=".notdef">
          95 0 58 542 60 hstem
          89 65 344 67 vstem
          89 hmoveto
          476 660 -476 hlineto
          108 -602 rmoveto
          74 132 54 103 -100 callgsubr
          52 -103 73 -132 rlineto
          -129 329 rmoveto
          -50 94 -66 119 rlineto
          235 hlineto
          -66 -119 -49 -94 rlineto
          -175 -277 rmoveto
          462 vlineto
          127 -232 rlineto
          217 -230 rmoveto
          -126 230 126 232 rlineto
          endchar
        </CharString>
        <CharString name="A">
          -103 callgsubr
          endchar
        </CharString>
        <CharString name="AE">
          endchar
        </CharString>
        <CharString name="Aacute">
          endchar
        </CharString>
        <CharString name="Abreve">
          endchar
        </CharString>
        <CharString name="Acircumflex">
          endchar
        </CharString>
        <CharString name="Adieresis">
          endchar
        </CharString>
        <CharString name="Agrave">
          endchar
        </CharString>
        <CharString name="Alpha">
          endchar
        </CharString>
        <CharString name="Alphatonos">
          endchar
        </CharString>
        <CharString name="Amacron">
          endchar
        </CharString>
        <CharString name="Aogonek">
          endchar
        </CharString>
        <CharString name="Aring">
          endchar
        </CharString>
        <CharString name="Atilde">
          endchar
        </CharString>
        <CharString name="B">
          endchar
        </CharString>
        <CharString name="Beta">
          endchar
        </CharString>
        <CharString name="C">
          endchar
        </CharString>
        <CharString name="Cacute">
          endchar
        </CharString>
        <CharString name="Ccaron">
          endchar
        </CharString>
        <CharString name="Ccedilla">
          endchar
        </CharString>
        <CharString name="Ccircumflex">
          endchar
        </CharString>
        <CharString name="Cdotaccent">
          endchar
        </CharString>
        <CharString name="Chi">
          endchar
        </CharString>
        <CharString name="D">
          endchar
        </CharString>
        <CharString name="Dcaron">
          endchar
        </CharString>
        <CharString name="Dcroat">
          endchar
        </CharString>
        <CharString name="E">
          endchar
        </CharString>
        <CharString name="Eacute">
          endchar
        </CharString>
        <CharString name="Ebreve">
          endchar
        </CharString>
        <CharString name="Ecaron">
          endchar
        </CharString>
        <CharString name="Ecircumflex">
          endchar
        </CharString>
        <CharString name="Edieresis">
          endchar
        </CharString>
        <CharString name="Edotaccent">
          endchar
        </CharString>
        <CharString name="Egrave">
          endchar
        </CharString>
        <CharString name="Emacron">
          endchar
        </CharString>
        <CharString name="Eogonek">
          endchar
        </CharString>
        <CharString name="Epsilon">
          endchar
        </CharString>
        <CharString name="Epsilontonos">
          endchar
        </CharString>
        <CharString name="Eta">
          endchar
        </CharString>
        <CharString name="Etatonos">
          endchar
        </CharString>
        <CharString name="Eth">
          endchar
        </CharString>
        <CharString name="F">
          endchar
        </CharString>
        <CharString name="G">
          endchar
        </CharString>
        <CharString name="Gamma">
          endchar
        </CharString>
        <CharString name="Gbreve">
          endchar
        </CharString>
        <CharString name="Gcaron">
          endchar
        </CharString>
        <CharString name="Gcircumflex">
          endchar
        </CharString>
        <CharString name="Gdotaccent">
          endchar
        </CharString>
        <CharString name="H">
          endchar
        </CharString>
        <CharString name="Hbar">
          endchar
        </CharString>
        <CharString name="Hcircumflex">
          endchar
        </CharString>
        <CharString name="I">
          endchar
        </CharString>
        <CharString name="I.a">
          endchar
        </CharString>
        <CharString name="Iacute">
          endchar
        </CharString>
        <CharString name="Iacute.a">
          endchar
        </CharString>
        <CharString name="Icircumflex">
          endchar
        </CharString>
        <CharString name="Icircumflex.a">
          endchar
        </CharString>
        <CharString name="Idieresis">
          endchar
        </CharString>
        <CharString name="Idieresis.a">
          endchar
        </CharString>
        <CharString name="Idotaccent">
          endchar
        </CharString>
        <CharString name="Idotaccent.a">
          endchar
        </CharString>
        <CharString name="Igrave">
          endchar
        </CharString>
        <CharString name="Igrave.a">
          endchar
        </CharString>
        <CharString name="Imacron">
          endchar
        </CharString>
        <CharString name="Imacron.a">
          endchar
        </CharString>
        <CharString name="Iogonek">
          endchar
        </CharString>
        <CharString name="Iogonek.a">
          endchar
        </CharString>
        <CharString name="Iota">
          endchar
        </CharString>
        <CharString name="Iotadieresis">
          endchar
        </CharString>
        <CharString name="Iotatonos">
          endchar
        </CharString>
        <CharString name="Itilde">
          endchar
        </CharString>
        <CharString name="Itilde.a">
          endchar
        </CharString>
        <CharString name="J">
          endchar
        </CharString>
        <CharString name="Jcircumflex">
          endchar
        </CharString>
        <CharString name="K">
          endchar
        </CharString>
        <CharString name="Kappa">
          endchar
        </CharString>
        <CharString name="L">
          endchar
        </CharString>
        <CharString name="Lacute">
          endchar
        </CharString>
        <CharString name="Lambda">
          endchar
        </CharString>
        <CharString name="Lcaron">
          endchar
        </CharString>
        <CharString name="Ldot">
          endchar
        </CharString>
        <CharString name="Lslash">
          endchar
        </CharString>
        <CharString name="M">
          endchar
        </CharString>
        <CharString name="Mu">
          endchar
        </CharString>
        <CharString name="N">
          endchar
        </CharString>
        <CharString name="Nacute">
          endchar
        </CharString>
        <CharString name="Ncaron">
          endchar
        </CharString>
        <CharString name="Ntilde">
          endchar
        </CharString>
        <CharString name="Nu">
          endchar
        </CharString>
        <CharString name="O">
          endchar
        </CharString>
        <CharString name="OE">
          endchar
        </CharString>
        <CharString name="Oacute">
          endchar
        </CharString>
        <CharString name="Ocircumflex">
          endchar
        </CharString>
        <CharString name="Odieresis">
          endchar
        </CharString>
        <CharString name="Ograve">
          endchar
        </CharString>
        <CharString name="Ohorn">
          endchar
        </CharString>
        <CharString name="Ohungarumlaut">
          endchar
        </CharString>
        <CharString name="Omacron">
          endchar
        </CharString>
        <CharString name="Omegatonos">
          endchar
        </CharString>
        <CharString name="Omicron">
          endchar
        </CharString>
        <CharString name="Omicrontonos">
          endchar
        </CharString>
        <CharString name="Oslash">
          endchar
        </CharString>
        <CharString name="Otilde">
          endchar
        </CharString>
        <CharString name="P">
          endchar
        </CharString>
        <CharString name="Phi">
          endchar
        </CharString>
        <CharString name="Pi">
          endchar
        </CharString>
        <CharString name="Psi">
          endchar
        </CharString>
        <CharString name="Q">
          endchar
        </CharString>
        <CharString name="R">
          endchar
        </CharString>
        <CharString name="Racute">
          endchar
        </CharString>
        <CharString name="Rcaron">
          endchar
        </CharString>
        <CharString name="Rho">
          endchar
        </CharString>
        <CharString name="S">
          endchar
        </CharString>
        <CharString name="Sacute">
          endchar
        </CharString>
        <CharString name="Scaron">
          endchar
        </CharString>
        <CharString name="Scircumflex">
          endchar
        </CharString>
        <CharString name="Sigma">
          endchar
        </CharString>
        <CharString name="T">
          endchar
        </CharString>
        <CharString name="Tau">
          endchar
        </CharString>
        <CharString name="Tcaron">
          endchar
        </CharString>
        <CharString name="Theta">
          endchar
        </CharString>
        <CharString name="Thorn">
          endchar
        </CharString>
        <CharString name="U">
          endchar
        </CharString>
        <CharString name="Uacute">
          endchar
        </CharString>
        <CharString name="Ubreve">
          endchar
        </CharString>
        <CharString name="Ucircumflex">
          endchar
        </CharString>
        <CharString name="Udieresis">
          endchar
        </CharString>
        <CharString name="Ugrave">
          endchar
        </CharString>
        <CharString name="Uhorn">
          endchar
        </CharString>
        <CharString name="Uhungarumlaut">
          endchar
        </CharString>
        <CharString name="Umacron">
          endchar
        </CharString>
        <CharString name="Uogonek">
          endchar
        </CharString>
        <CharString name="Upsilon">
          endchar
        </CharString>
        <CharString name="Upsilondieresis">
          endchar
        </CharString>
        <CharString name="Upsilontonos">
          endchar
        </CharString>
        <CharString name="Uring">
          endchar
        </CharString>
        <CharString name="Utilde">
          endchar
        </CharString>
        <CharString name="V">
          endchar
        </CharString>
        <CharString name="W">
          endchar
        </CharString>
        <CharString name="Wacute">
          endchar
        </CharString>
        <CharString name="Wcircumflex">
          endchar
        </CharString>
        <CharString name="Wdieresis">
          endchar
        </CharString>
        <CharString name="Wgrave">
          endchar
        </CharString>
        <CharString name="X">
          endchar
        </CharString>
        <CharString name="Xi">
          endchar
        </CharString>
        <CharString name="Y">
          endchar
        </CharString>
        <CharString name="Yacute">
          endchar
        </CharString>
        <CharString name="Ycircumflex">
          endchar
        </CharString>
        <CharString name="Ydieresis">
          endchar
        </CharString>
        <CharString name="Ygrave">
          endchar
        </CharString>
        <CharString name="Z">
          endchar
        </CharString>
        <CharString name="Zacute">
          endchar
        </CharString>
        <CharString name="Zcaron">
          endchar
        </CharString>
        <CharString name="Zdotaccent">
          endchar
        </CharString>
        <CharString name="Zeta">
          endchar
        </CharString>
        <CharString name="a">
          endchar
        </CharString>
        <CharString name="a.a">
          endchar
        </CharString>
        <CharString name="aacute">
          endchar
        </CharString>
        <CharString name="aacute.a">
          endchar
        </CharString>
        <CharString name="abreve">
          endchar
        </CharString>
        <CharString name="abreve.a">
          endchar
        </CharString>
        <CharString name="acircumflex">
          endchar
        </CharString>
        <CharString name="acircumflex.a">
          endchar
        </CharString>
        <CharString name="adieresis">
          endchar
        </CharString>
        <CharString name="adieresis.a">
          endchar
        </CharString>
        <CharString name="ae">
          endchar
        </CharString>
        <CharString name="agrave">
          endchar
        </CharString>
        <CharString name="agrave.a">
          endchar
        </CharString>
        <CharString name="alpha">
          endchar
        </CharString>
        <CharString name="alphatonos">
          endchar
        </CharString>
        <CharString name="amacron">
          endchar
        </CharString>
        <CharString name="amacron.a">
          endchar
        </CharString>
        <CharString name="ampersand">
          endchar
        </CharString>
        <CharString name="anoteleia">
          endchar
        </CharString>
        <CharString name="anoteleia.cap">
          endchar
        </CharString>
        <CharString name="aogonek">
          endchar
        </CharString>
        <CharString name="aogonek.a">
          endchar
        </CharString>
        <CharString name="aring">
          endchar
        </CharString>
        <CharString name="aring.a">
          endchar
        </CharString>
        <CharString name="atilde">
          endchar
        </CharString>
        <CharString name="atilde.a">
          endchar
        </CharString>
        <CharString name="b">
          -5 -88 callgsubr
          214 -20 hstemhm
          82 82 258 85 hintmask 10111100
          297 -12 rmoveto
          111 99 97 166 150 -67 97 -126 -54 -54 -29 -39 -44 hvcurveto
          2 88 rlineto
          194 -82 vlineto
          hintmask 01111100
          -712 66 vlineto
          hintmask 10111100
          -94 callgsubr
          endchar
        </CharString>
        <CharString name="beta">
          endchar
        </CharString>
        <CharString name="c">
          -98 callgsubr
          endchar
        </CharString>
        <CharString name="cacute">
          endchar
        </CharString>
        <CharString name="ccaron">
          endchar
        </CharString>
        <CharString name="ccedilla">
          endchar
        </CharString>
        <CharString name="ccircumflex">
          endchar
        </CharString>
        <CharString name="cdotaccent">
          endchar
        </CharString>
        <CharString name="chi">
          endchar
        </CharString>
        <CharString name="colon">
          endchar
        </CharString>
        <CharString name="comma">
          endchar
        </CharString>
        <CharString name="d">
          endchar
        </CharString>
        <CharString name="dcaron">
          endchar
        </CharString>
        <CharString name="dcroat">
          endchar
        </CharString>
        <CharString name="delta">
          endchar
        </CharString>
        <CharString name="dieresistonos">
          endchar
        </CharString>
        <CharString name="dotlessi">
          endchar
        </CharString>
        <CharString name="e">
          endchar
        </CharString>
        <CharString name="eacute">
          endchar
        </CharString>
        <CharString name="ebreve">
          endchar
        </CharString>
        <CharString name="ecaron">
          endchar
        </CharString>
        <CharString name="ecircumflex">
          endchar
        </CharString>
        <CharString name="edieresis">
          endchar
        </CharString>
        <CharString name="edotaccent">
          endchar
        </CharString>
        <CharString name="egrave">
          endchar
        </CharString>
        <CharString name="eight">
          endchar
        </CharString>
        <CharString name="eight.cap">
          endchar
        </CharString>
        <CharString name="eight.onum">
          endchar
        </CharString>
        <CharString name="eight.pnum">
          endchar
        </CharString>
        <CharString name="eight.tnum">
          endchar
        </CharString>
        <CharString name="ellipsis">
          endchar
        </CharString>
        <CharString name="emacron">
          endchar
        </CharString>
        <CharString name="eogonek">
          endchar
        </CharString>
        <CharString name="epsilon">
          endchar
        </CharString>
        <CharString name="epsilontonos">
          endchar
        </CharString>
        <CharString name="eta">
          endchar
        </CharString>
        <CharString name="etatonos">
          endchar
        </CharString>
        <CharString name="eth">
          endchar
        </CharString>
        <CharString name="exclam">
          -269 -12 126 -105 -21 hstemhm
          85 -99 callsubr
          hintmask 01010000
          116 198 -93 callgsubr
          hintmask 01100000
          40 -588 rmoveto
          32 27 26 36 hvcurveto
          hintmask 10100000
          38 -89 callgsubr
          -38 vhcurveto
          hintmask 01100000
          -36 27 -26 33 vhcurveto
          endchar
        </CharString>
        <CharString name="f">
          endchar
        </CharString>
        <CharString name="f_f">
          endchar
        </CharString>
        <CharString name="f_f_i">
          endchar
        </CharString>
        <CharString name="f_f_l">
          endchar
        </CharString>
        <CharString name="f_f_t">
          endchar
        </CharString>
        <CharString name="f_t">
          endchar
        </CharString>
        <CharString name="five">
          endchar
        </CharString>
        <CharString name="five.cap">
          endchar
        </CharString>
        <CharString name="five.onum">
          endchar
        </CharString>
        <CharString name="five.pnum">
          endchar
        </CharString>
        <CharString name="five.tnum">
          endchar
        </CharString>
        <CharString name="fl.a">
          endchar
        </CharString>
        <CharString name="four">
          endchar
        </CharString>
        <CharString name="four.cap">
          endchar
        </CharString>
        <CharString name="four.onum">
          endchar
        </CharString>
        <CharString name="four.pnum">
          endchar
        </CharString>
        <CharString name="four.tnum">
          endchar
        </CharString>
        <CharString name="g">
          endchar
        </CharString>
        <CharString name="g.a">
          endchar
        </CharString>
        <CharString name="gamma">
          endchar
        </CharString>
        <CharString name="gbreve">
          endchar
        </CharString>
        <CharString name="gbreve.a">
          endchar
        </CharString>
        <CharString name="gcaron">
          endchar
        </CharString>
        <CharString name="gcaron.a">
          endchar
        </CharString>
        <CharString name="gcircumflex">
          endchar
        </CharString>
        <CharString name="gcircumflex.a">
          endchar
        </CharString>
        <CharString name="gdotaccent">
          endchar
        </CharString>
        <CharString name="gdotaccent.a">
          endchar
        </CharString>
        <CharString name="germandbls">
          endchar
        </CharString>
        <CharString name="h">
          endchar
        </CharString>
        <CharString name="hbar">
          endchar
        </CharString>
        <CharString name="hcircumflex">
          endchar
        </CharString>
        <CharString name="i">
          endchar
        </CharString>
        <CharString name="iacute">
          endchar
        </CharString>
        <CharString name="icircumflex">
          endchar
        </CharString>
        <CharString name="idieresis">
          endchar
        </CharString>
        <CharString name="igrave">
          endchar
        </CharString>
        <CharString name="imacron">
          endchar
        </CharString>
        <CharString name="iogonek">
          endchar
        </CharString>
        <CharString name="iogonek.d">
          endchar
        </CharString>
        <CharString name="iota">
          endchar
        </CharString>
        <CharString name="iotadieresis">
          endchar
        </CharString>
        <CharString name="iotadieresistonos">
          endchar
        </CharString>
        <CharString name="iotatonos">
          endchar
        </CharString>
        <CharString name="itilde">
          endchar
        </CharString>
        <CharString name="j">
          endchar
        </CharString>
        <CharString name="jcircumflex">
          endchar
        </CharString>
        <CharString name="k">
          endchar
        </CharString>
        <CharString name="kappa">
          endchar
        </CharString>
        <CharString name="kgreenlandic">
          endchar
        </CharString>
        <CharString name="l">
          endchar
        </CharString>
        <CharString name="l.a">
          endchar
        </CharString>
        <CharString name="lacute">
          endchar
        </CharString>
        <CharString name="lacute.a">
          endchar
        </CharString>
        <CharString name="lambda">
          endchar
        </CharString>
        <CharString name="lcaron">
          endchar
        </CharString>
        <CharString name="lcaron.a">
          endchar
        </CharString>
        <CharString name="ldot">
          endchar
        </CharString>
        <CharString name="ldot.a">
          endchar
        </CharString>
        <CharString name="lslash">
          endchar
        </CharString>
        <CharString name="lslash.a">
          endchar
        </CharString>
        <CharString name="m">
          endchar
        </CharString>
        <CharString name="n">
          endchar
        </CharString>
        <CharString name="nacute">
          endchar
        </CharString>
        <CharString name="napostrophe">
          endchar
        </CharString>
        <CharString name="ncaron">
          endchar
        </CharString>
        <CharString name="nine">
          endchar
        </CharString>
        <CharString name="nine.cap">
          endchar
        </CharString>
        <CharString name="nine.onum">
          endchar
        </CharString>
        <CharString name="nine.pnum">
          endchar
        </CharString>
        <CharString name="nine.tnum">
          endchar
        </CharString>
        <CharString name="ntilde">
          endchar
        </CharString>
        <CharString name="nu">
          endchar
        </CharString>
        <CharString name="o">
          endchar
        </CharString>
        <CharString name="oacute">
          endchar
        </CharString>
        <CharString name="ocircumflex">
          endchar
        </CharString>
        <CharString name="odieresis">
          endchar
        </CharString>
        <CharString name="oe">
          endchar
        </CharString>
        <CharString name="ograve">
          endchar
        </CharString>
        <CharString name="ohorn">
          endchar
        </CharString>
        <CharString name="ohungarumlaut">
          endchar
        </CharString>
        <CharString name="omacron">
          endchar
        </CharString>
        <CharString name="omega">
          endchar
        </CharString>
        <CharString name="omegatonos">
          endchar
        </CharString>
        <CharString name="omicron">
          endchar
        </CharString>
        <CharString name="omicrontonos">
          endchar
        </CharString>
        <CharString name="one">
          endchar
        </CharString>
        <CharString name="one.cap">
          endchar
        </CharString>
        <CharString name="one.onum">
          endchar
        </CharString>
        <CharString name="one.pnum">
          endchar
        </CharString>
        <CharString name="one.tnum">
          endchar
        </CharString>
        <CharString name="oslash">
          endchar
        </CharString>
        <CharString name="otilde">
          endchar
        </CharString>
        <CharString name="p">
          endchar
        </CharString>
        <CharString name="period">
          endchar
        </CharString>
        <CharString name="phi">
          endchar
        </CharString>
        <CharString name="pi">
          endchar
        </CharString>
        <CharString name="psi">
          endchar
        </CharString>
        <CharString name="q">
          endchar
        </CharString>
        <CharString name="r">
          endchar
        </CharString>
        <CharString name="racute">
          endchar
        </CharString>
        <CharString name="rcaron">
          endchar
        </CharString>
        <CharString name="rho">
          endchar
        </CharString>
        <CharString name="s">
          endchar
        </CharString>
        <CharString name="sacute">
          endchar
        </CharString>
        <CharString name="scaron">
          endchar
        </CharString>
        <CharString name="scircumflex">
          endchar
        </CharString>
        <CharString name="semicolon">
          endchar
        </CharString>
        <CharString name="seven">
          endchar
        </CharString>
        <CharString name="seven.cap">
          endchar
        </CharString>
        <CharString name="seven.onum">
          endchar
        </CharString>
        <CharString name="seven.pnum">
          endchar
        </CharString>
        <CharString name="seven.tnum">
          endchar
        </CharString>
        <CharString name="sigma">
          endchar
        </CharString>
        <CharString name="six">
          endchar
        </CharString>
        <CharString name="six.cap">
          endchar
        </CharString>
        <CharString name="six.onum">
          endchar
        </CharString>
        <CharString name="six.pnum">
          endchar
        </CharString>
        <CharString name="six.tnum">
          endchar
        </CharString>
        <CharString name="space">
          -358 endchar
        </CharString>
        <CharString name="t">
          endchar
        </CharString>
        <CharString name="tau">
          endchar
        </CharString>
        <CharString name="tcaron">
          endchar
        </CharString>
        <CharString name="theta">
          endchar
        </CharString>
        <CharString name="thorn">
          endchar
        </CharString>
        <CharString name="three">
          endchar
        </CharString>
        <CharString name="three.cap">
          endchar
        </CharString>
        <CharString name="three.onum">
          endchar
        </CharString>
        <CharString name="three.pnum">
          endchar
        </CharString>
        <CharString name="three.tnum">
          endchar
        </CharString>
        <CharString name="tonos">
          endchar
        </CharString>
        <CharString name="tonos.cap">
          endchar
        </CharString>
        <CharString name="two">
          endchar
        </CharString>
        <CharString name="two.cap">
          endchar
        </CharString>
        <CharString name="two.onum">
          endchar
        </CharString>
        <CharString name="two.pnum">
          endchar
        </CharString>
        <CharString name="two.tnum">
          endchar
        </CharString>
        <CharString name="u">
          endchar
        </CharString>
        <CharString name="uacute">
          endchar
        </CharString>
        <CharString name="ubreve">
          endchar
        </CharString>
        <CharString name="ucircumflex">
          endchar
        </CharString>
        <CharString name="udieresis">
          endchar
        </CharString>
        <CharString name="ugrave">
          endchar
        </CharString>
        <CharString name="uhorn">
          endchar
        </CharString>
        <CharString name="uhungarumlaut">
          endchar
        </CharString>
        <CharString name="umacron">
          endchar
        </CharString>
        <CharString name="uni00470303">
          endchar
        </CharString>
        <CharString name="uni00670303">
          endchar
        </CharString>
        <CharString name="uni00670303.a">
          endchar
        </CharString>
        <CharString name="uni0122">
          endchar
        </CharString>
        <CharString name="uni0123">
          endchar
        </CharString>
        <CharString name="uni0123.a">
          endchar
        </CharString>
        <CharString name="uni012C">
          endchar
        </CharString>
        <CharString name="uni012C.a">
          endchar
        </CharString>
        <CharString name="uni012D">
          endchar
        </CharString>
        <CharString name="uni0132">
          endchar
        </CharString>
        <CharString name="uni0133">
          endchar
        </CharString>
        <CharString name="uni0136">
          endchar
        </CharString>
        <CharString name="uni0137">
          endchar
        </CharString>
        <CharString name="uni013B">
          endchar
        </CharString>
        <CharString name="uni013C">
          endchar
        </CharString>
        <CharString name="uni013C.a">
          endchar
        </CharString>
        <CharString name="uni0145">
          endchar
        </CharString>
        <CharString name="uni0146">
          endchar
        </CharString>
        <CharString name="uni014A">
          endchar
        </CharString>
        <CharString name="uni014A.a">
          endchar
        </CharString>
        <CharString name="uni014B">
          endchar
        </CharString>
        <CharString name="uni014E">
          endchar
        </CharString>
        <CharString name="uni014F">
          endchar
        </CharString>
        <CharString name="uni0156">
          endchar
        </CharString>
        <CharString name="uni0157">
          endchar
        </CharString>
        <CharString name="uni015E">
          endchar
        </CharString>
        <CharString name="uni015F">
          endchar
        </CharString>
        <CharString name="uni0162">
          endchar
        </CharString>
        <CharString name="uni0163">
          endchar
        </CharString>
        <CharString name="uni0166">
          endchar
        </CharString>
        <CharString name="uni0167">
          endchar
        </CharString>
        <CharString name="uni0180">
          endchar
        </CharString>
        <CharString name="uni018F">
          endchar
        </CharString>
        <CharString name="uni0193">
          endchar
        </CharString>
        <CharString name="uni01C2">
          endchar
        </CharString>
        <CharString name="uni01CD">
          endchar
        </CharString>
        <CharString name="uni01CE">
          endchar
        </CharString>
        <CharString name="uni01CE.a">
          endchar
        </CharString>
        <CharString name="uni01CF">
          endchar
        </CharString>
        <CharString name="uni01CF.a">
          endchar
        </CharString>
        <CharString name="uni01D0">
          endchar
        </CharString>
        <CharString name="uni01D1">
          endchar
        </CharString>
        <CharString name="uni01D2">
          endchar
        </CharString>
        <CharString name="uni01D3">
          endchar
        </CharString>
        <CharString name="uni01D4">
          endchar
        </CharString>
        <CharString name="uni01D5">
          endchar
        </CharString>
        <CharString name="uni01D6">
          endchar
        </CharString>
        <CharString name="uni01D7">
          endchar
        </CharString>
        <CharString name="uni01D8">
          endchar
        </CharString>
        <CharString name="uni01D9">
          endchar
        </CharString>
        <CharString name="uni01DA">
          endchar
        </CharString>
        <CharString name="uni01DB">
          endchar
        </CharString>
        <CharString name="uni01DC">
          endchar
        </CharString>
        <CharString name="uni01E2">
          endchar
        </CharString>
        <CharString name="uni01E3">
          endchar
        </CharString>
        <CharString name="uni01EA">
          endchar
        </CharString>
        <CharString name="uni01EB">
          endchar
        </CharString>
        <CharString name="uni01F4">
          endchar
        </CharString>
        <CharString name="uni01F5">
          endchar
        </CharString>
        <CharString name="uni01F5.a">
          endchar
        </CharString>
        <CharString name="uni01F8">
          endchar
        </CharString>
        <CharString name="uni01F9">
          endchar
        </CharString>
        <CharString name="uni01FC">
          -101 callgsubr
          195 49 -105 callgsubr
        </CharString>
        <CharString name="uni01FD">
          endchar
        </CharString>
        <CharString name="uni0218">
          endchar
        </CharString>
        <CharString name="uni0219">
          endchar
        </CharString>
        <CharString name="uni021A">
          endchar
        </CharString>
        <CharString name="uni021B">
          endchar
        </CharString>
        <CharString name="uni0237">
          endchar
        </CharString>
        <CharString name="uni0243">
          endchar
        </CharString>
        <CharString name="uni0250">
          endchar
        </CharString>
        <CharString name="uni0251">
          endchar
        </CharString>
        <CharString name="uni0252">
          endchar
        </CharString>
        <CharString name="uni0253">
          endchar
        </CharString>
        <CharString name="uni0254">
          endchar
        </CharString>
        <CharString name="uni0255">
          endchar
        </CharString>
        <CharString name="uni0256">
          endchar
        </CharString>
        <CharString name="uni0257">
          endchar
        </CharString>
        <CharString name="uni0258">
          endchar
        </CharString>
        <CharString name="uni0259">
          endchar
        </CharString>
        <CharString name="uni025A">
          endchar
        </CharString>
        <CharString name="uni025B">
          endchar
        </CharString>
        <CharString name="uni025C">
          endchar
        </CharString>
        <CharString name="uni025E">
          endchar
        </CharString>
        <CharString name="uni025F">
          endchar
        </CharString>
        <CharString name="uni0260">
          endchar
        </CharString>
        <CharString name="uni0261">
          endchar
        </CharString>
        <CharString name="uni0262">
          endchar
        </CharString>
        <CharString name="uni0263">
          endchar
        </CharString>
        <CharString name="uni0264">
          endchar
        </CharString>
        <CharString name="uni0265">
          endchar
        </CharString>
        <CharString name="uni0266">
          endchar
        </CharString>
        <CharString name="uni0267">
          endchar
        </CharString>
        <CharString name="uni0268">
          endchar
        </CharString>
        <CharString name="uni026A">
          endchar
        </CharString>
        <CharString name="uni026C">
          endchar
        </CharString>
        <CharString name="uni026D">
          endchar
        </CharString>
        <CharString name="uni026E">
          endchar
        </CharString>
        <CharString name="uni026F">
          endchar
        </CharString>
        <CharString name="uni0270">
          endchar
        </CharString>
        <CharString name="uni0271">
          endchar
        </CharString>
        <CharString name="uni0272">
          endchar
        </CharString>
        <CharString name="uni0273">
          endchar
        </CharString>
        <CharString name="uni0274">
          endchar
        </CharString>
        <CharString name="uni0275">
          endchar
        </CharString>
        <CharString name="uni0276">
          endchar
        </CharString>
        <CharString name="uni0278">
          endchar
        </CharString>
        <CharString name="uni0279">
          endchar
        </CharString>
        <CharString name="uni027A">
          endchar
        </CharString>
        <CharString name="uni027B">
          endchar
        </CharString>
        <CharString name="uni027D">
          endchar
        </CharString>
        <CharString name="uni027E">
          endchar
        </CharString>
        <CharString name="uni0280">
          endchar
        </CharString>
        <CharString name="uni0281">
          endchar
        </CharString>
        <CharString name="uni0282">
          endchar
        </CharString>
        <CharString name="uni0283">
          endchar
        </CharString>
        <CharString name="uni0284">
          endchar
        </CharString>
        <CharString name="uni0288">
          endchar
        </CharString>
        <CharString name="uni0289">
          endchar
        </CharString>
        <CharString name="uni028A">
          endchar
        </CharString>
        <CharString name="uni028B">
          endchar
        </CharString>
        <CharString name="uni028C">
          endchar
        </CharString>
        <CharString name="uni028D">
          endchar
        </CharString>
        <CharString name="uni028E">
          endchar
        </CharString>
        <CharString name="uni028F">
          endchar
        </CharString>
        <CharString name="uni0290">
          endchar
        </CharString>
        <CharString name="uni0291">
          endchar
        </CharString>
        <CharString name="uni0292">
          endchar
        </CharString>
        <CharString name="uni0294">
          endchar
        </CharString>
        <CharString name="uni0295">
          endchar
        </CharString>
        <CharString name="uni0298">
          endchar
        </CharString>
        <CharString name="uni0299">
          endchar
        </CharString>
        <CharString name="uni029C">
          endchar
        </CharString>
        <CharString name="uni029D">
          endchar
        </CharString>
        <CharString name="uni029F">
          endchar
        </CharString>
        <CharString name="uni02A1">
          endchar
        </CharString>
        <CharString name="uni02A2">
          endchar
        </CharString>
        <CharString name="uni0374">
          endchar
        </CharString>
        <CharString name="uni0375">
          endchar
        </CharString>
        <CharString name="uni037A">
          endchar
        </CharString>
        <CharString name="uni037E">
          endchar
        </CharString>
        <CharString name="uni0394">
          endchar
        </CharString>
        <CharString name="uni03A9">
          endchar
        </CharString>
        <CharString name="uni03BC">
          endchar
        </CharString>
        <CharString name="uni03C2">
          endchar
        </CharString>
        <CharString name="uni03D0">
          endchar
        </CharString>
        <CharString name="uni03D1">
          endchar
        </CharString>
        <CharString name="uni03D5">
          endchar
        </CharString>
        <CharString name="uni03D7">
          endchar
        </CharString>
        <CharString name="uni03D9">
          endchar
        </CharString>
        <CharString name="uni03DB">
          endchar
        </CharString>
        <CharString name="uni03DD">
          endchar
        </CharString>
        <CharString name="uni03E1">
          endchar
        </CharString>
        <CharString name="uni0400">
          endchar
        </CharString>
        <CharString name="uni0401">
          endchar
        </CharString>
        <CharString name="uni0402">
          endchar
        </CharString>
        <CharString name="uni0403">
          endchar
        </CharString>
        <CharString name="uni0404">
          endchar
        </CharString>
        <CharString name="uni0405">
          endchar
        </CharString>
        <CharString name="uni0406">
          endchar
        </CharString>
        <CharString name="uni0407">
          endchar
        </CharString>
        <CharString name="uni0407.a">
          endchar
        </CharString>
        <CharString name="uni0408">
          endchar
        </CharString>
        <CharString name="uni0409">
          endchar
        </CharString>
        <CharString name="uni040A">
          endchar
        </CharString>
        <CharString name="uni040B">
          endchar
        </CharString>
        <CharString name="uni040C">
          endchar
        </CharString>
        <CharString name="uni040C.a">
          endchar
        </CharString>
        <CharString name="uni040C.b">
          endchar
        </CharString>
        <CharString name="uni040D">
          endchar
        </CharString>
        <CharString name="uni040E">
          endchar
        </CharString>
        <CharString name="uni040F">
          endchar
        </CharString>
        <CharString name="uni0410">
          endchar
        </CharString>
        <CharString name="uni0411">
          endchar
        </CharString>
        <CharString name="uni0412">
          endchar
        </CharString>
        <CharString name="uni0413">
          endchar
        </CharString>
        <CharString name="uni0414">
          endchar
        </CharString>
        <CharString name="uni0415">
          endchar
        </CharString>
        <CharString name="uni0416">
          endchar
        </CharString>
        <CharString name="uni0416.a">
          endchar
        </CharString>
        <CharString name="uni0416.b">
          endchar
        </CharString>
        <CharString name="uni0417">
          endchar
        </CharString>
        <CharString name="uni0418">
          endchar
        </CharString>
        <CharString name="uni0419">
          endchar
        </CharString>
        <CharString name="uni041A">
          endchar
        </CharString>
        <CharString name="uni041A.a">
          endchar
        </CharString>
        <CharString name="uni041A.b">
          endchar
        </CharString>
        <CharString name="uni041B">
          endchar
        </CharString>
        <CharString name="uni041C">
          endchar
        </CharString>
        <CharString name="uni041D">
          endchar
        </CharString>
        <CharString name="uni041E">
          endchar
        </CharString>
        <CharString name="uni041F">
          endchar
        </CharString>
        <CharString name="uni0420">
          endchar
        </CharString>
        <CharString name="uni0421">
          endchar
        </CharString>
        <CharString name="uni0422">
          endchar
        </CharString>
        <CharString name="uni0423">
          endchar
        </CharString>
        <CharString name="uni0424">
          endchar
        </CharString>
        <CharString name="uni0425">
          endchar
        </CharString>
        <CharString name="uni0426">
          endchar
        </CharString>
        <CharString name="uni0427">
          endchar
        </CharString>
        <CharString name="uni0428">
          endchar
        </CharString>
        <CharString name="uni0429">
          endchar
        </CharString>
        <CharString name="uni042A">
          endchar
        </CharString>
        <CharString name="uni042B">
          endchar
        </CharString>
        <CharString name="uni042C">
          endchar
        </CharString>
        <CharString name="uni042D">
          endchar
        </CharString>
        <CharString name="uni042E">
          endchar
        </CharString>
        <CharString name="uni042F">
          endchar
        </CharString>
        <CharString name="uni0430">
          endchar
        </CharString>
        <CharString name="uni0431">
          endchar
        </CharString>
        <CharString name="uni0431.srb">
          endchar
        </CharString>
        <CharString name="uni0432">
          endchar
        </CharString>
        <CharString name="uni0433">
          endchar
        </CharString>
        <CharString name="uni0434">
          endchar
        </CharString>
        <CharString name="uni0435">
          endchar
        </CharString>
        <CharString name="uni0436">
          endchar
        </CharString>
        <CharString name="uni0436.a">
          endchar
        </CharString>
        <CharString name="uni0436.b">
          endchar
        </CharString>
        <CharString name="uni0437">
          endchar
        </CharString>
        <CharString name="uni0438">
          endchar
        </CharString>
        <CharString name="uni0439">
          endchar
        </CharString>
        <CharString name="uni043A">
          endchar
        </CharString>
        <CharString name="uni043A.a">
          endchar
        </CharString>
        <CharString name="uni043A.b">
          endchar
        </CharString>
        <CharString name="uni043B">
          endchar
        </CharString>
        <CharString name="uni043C">
          endchar
        </CharString>
        <CharString name="uni043D">
          endchar
        </CharString>
        <CharString name="uni043E">
          endchar
        </CharString>
        <CharString name="uni043F">
          endchar
        </CharString>
        <CharString name="uni0440">
          endchar
        </CharString>
        <CharString name="uni0441">
          endchar
        </CharString>
        <CharString name="uni0442">
          endchar
        </CharString>
        <CharString name="uni0443">
          endchar
        </CharString>
        <CharString name="uni0444">
          endchar
        </CharString>
        <CharString name="uni0445">
          endchar
        </CharString>
        <CharString name="uni0446">
          endchar
        </CharString>
        <CharString name="uni0447">
          endchar
        </CharString>
        <CharString name="uni0448">
          endchar
        </CharString>
        <CharString name="uni0449">
          endchar
        </CharString>
        <CharString name="uni044A">
          endchar
        </CharString>
        <CharString name="uni044B">
          endchar
        </CharString>
        <CharString name="uni044C">
          endchar
        </CharString>
        <CharString name="uni044D">
          endchar
        </CharString>
        <CharString name="uni044E">
          endchar
        </CharString>
        <CharString name="uni044F">
          endchar
        </CharString>
        <CharString name="uni0450">
          endchar
        </CharString>
        <CharString name="uni0451">
          endchar
        </CharString>
        <CharString name="uni0452">
          endchar
        </CharString>
        <CharString name="uni0453">
          endchar
        </CharString>
        <CharString name="uni0454">
          endchar
        </CharString>
        <CharString name="uni0455">
          endchar
        </CharString>
        <CharString name="uni0456">
          endchar
        </CharString>
        <CharString name="uni0457">
          endchar
        </CharString>
        <CharString name="uni0457.a">
          endchar
        </CharString>
        <CharString name="uni0458">
          endchar
        </CharString>
        <CharString name="uni0459">
          endchar
        </CharString>
        <CharString name="uni045A">
          endchar
        </CharString>
        <CharString name="uni045B">
          endchar
        </CharString>
        <CharString name="uni045C">
          endchar
        </CharString>
        <CharString name="uni045C.a">
          endchar
        </CharString>
        <CharString name="uni045C.b">
          endchar
        </CharString>
        <CharString name="uni045D">
          endchar
        </CharString>
        <CharString name="uni045E">
          endchar
        </CharString>
        <CharString name="uni045F">
          endchar
        </CharString>
        <CharString name="uni0462">
          endchar
        </CharString>
        <CharString name="uni0463">
          endchar
        </CharString>
        <CharString name="uni0472">
          endchar
        </CharString>
        <CharString name="uni0473">
          endchar
        </CharString>
        <CharString name="uni0474">
          endchar
        </CharString>
        <CharString name="uni0475">
          endchar
        </CharString>
        <CharString name="uni0490">
          endchar
        </CharString>
        <CharString name="uni0491">
          endchar
        </CharString>
        <CharString name="uni0492">
          endchar
        </CharString>
        <CharString name="uni0493">
          endchar
        </CharString>
        <CharString name="uni0496">
          endchar
        </CharString>
        <CharString name="uni0496.a">
          endchar
        </CharString>
        <CharString name="uni0496.b">
          endchar
        </CharString>
        <CharString name="uni0497">
          endchar
        </CharString>
        <CharString name="uni0497.a">
          endchar
        </CharString>
        <CharString name="uni0497.b">
          endchar
        </CharString>
        <CharString name="uni0498">
          endchar
        </CharString>
        <CharString name="uni0499">
          endchar
        </CharString>
        <CharString name="uni049A">
          endchar
        </CharString>
        <CharString name="uni049A.a">
          endchar
        </CharString>
        <CharString name="uni049A.b">
          endchar
        </CharString>
        <CharString name="uni049B">
          endchar
        </CharString>
        <CharString name="uni049B.a">
          endchar
        </CharString>
        <CharString name="uni049B.b">
          endchar
        </CharString>
        <CharString name="uni04A0">
          endchar
        </CharString>
        <CharString name="uni04A0.a">
          endchar
        </CharString>
        <CharString name="uni04A0.b">
          endchar
        </CharString>
        <CharString name="uni04A1">
          endchar
        </CharString>
        <CharString name="uni04A1.a">
          endchar
        </CharString>
        <CharString name="uni04A1.b">
          endchar
        </CharString>
        <CharString name="uni04A2">
          endchar
        </CharString>
        <CharString name="uni04A3">
          endchar
        </CharString>
        <CharString name="uni04AA">
          endchar
        </CharString>
        <CharString name="uni04AB">
          endchar
        </CharString>
        <CharString name="uni04AE">
          endchar
        </CharString>
        <CharString name="uni04AF">
          endchar
        </CharString>
        <CharString name="uni04B0">
          endchar
        </CharString>
        <CharString name="uni04B1">
          endchar
        </CharString>
        <CharString name="uni04B2">
          endchar
        </CharString>
        <CharString name="uni04B3">
          endchar
        </CharString>
        <CharString name="uni04B6">
          endchar
        </CharString>
        <CharString name="uni04B7">
          endchar
        </CharString>
        <CharString name="uni04BA">
          endchar
        </CharString>
        <CharString name="uni04BB">
          endchar
        </CharString>
        <CharString name="uni04C0">
          endchar
        </CharString>
        <CharString name="uni04C1">
          endchar
        </CharString>
        <CharString name="uni04C1.a">
          endchar
        </CharString>
        <CharString name="uni04C1.b">
          endchar
        </CharString>
        <CharString name="uni04C2">
          endchar
        </CharString>
        <CharString name="uni04C2.a">
          endchar
        </CharString>
        <CharString name="uni04C2.b">
          endchar
        </CharString>
        <CharString name="uni04CF">
          endchar
        </CharString>
        <CharString name="uni04D0">
          endchar
        </CharString>
        <CharString name="uni04D1">
          endchar
        </CharString>
        <CharString name="uni04D4">
          endchar
        </CharString>
        <CharString name="uni04D5">
          endchar
        </CharString>
        <CharString name="uni04D6">
          endchar
        </CharString>
        <CharString name="uni04D7">
          endchar
        </CharString>
        <CharString name="uni04D8">
          endchar
        </CharString>
        <CharString name="uni04D9">
          endchar
        </CharString>
        <CharString name="uni04E2">
          endchar
        </CharString>
        <CharString name="uni04E3">
          endchar
        </CharString>
        <CharString name="uni04E6">
          endchar
        </CharString>
        <CharString name="uni04E7">
          endchar
        </CharString>
        <CharString name="uni04E8">
          endchar
        </CharString>
        <CharString name="uni04E9">
          endchar
        </CharString>
        <CharString name="uni04EE">
          endchar
        </CharString>
        <CharString name="uni04EF">
          endchar
        </CharString>
        <CharString name="uni04F2">
          endchar
        </CharString>
        <CharString name="uni04F3">
          endchar
        </CharString>
        <CharString name="uni1E06">
          endchar
        </CharString>
        <CharString name="uni1E07">
          endchar
        </CharString>
        <CharString name="uni1E0C">
          endchar
        </CharString>
        <CharString name="uni1E0D">
          endchar
        </CharString>
        <CharString name="uni1E0E">
          endchar
        </CharString>
        <CharString name="uni1E0F">
          endchar
        </CharString>
        <CharString name="uni1E16">
          endchar
        </CharString>
        <CharString name="uni1E17">
          endchar
        </CharString>
        <CharString name="uni1E20">
          endchar
        </CharString>
        <CharString name="uni1E21">
          endchar
        </CharString>
        <CharString name="uni1E21.a">
          endchar
        </CharString>
        <CharString name="uni1E24">
          endchar
        </CharString>
        <CharString name="uni1E25">
          endchar
        </CharString>
        <CharString name="uni1E2A">
          endchar
        </CharString>
        <CharString name="uni1E2B">
          endchar
        </CharString>
        <CharString name="uni1E32">
          endchar
        </CharString>
        <CharString name="uni1E33">
          endchar
        </CharString>
        <CharString name="uni1E34">
          endchar
        </CharString>
        <CharString name="uni1E35">
          endchar
        </CharString>
        <CharString name="uni1E36">
          endchar
        </CharString>
        <CharString name="uni1E37">
          endchar
        </CharString>
        <CharString name="uni1E37.a">
          endchar
        </CharString>
        <CharString name="uni1E38">
          endchar
        </CharString>
        <CharString name="uni1E39">
          endchar
        </CharString>
        <CharString name="uni1E39.a">
          endchar
        </CharString>
        <CharString name="uni1E3A">
          endchar
        </CharString>
        <CharString name="uni1E3B">
          endchar
        </CharString>
        <CharString name="uni1E3B.a">
          endchar
        </CharString>
        <CharString name="uni1E3E">
          endchar
        </CharString>
        <CharString name="uni1E3F">
          endchar
        </CharString>
        <CharString name="uni1E40">
          endchar
        </CharString>
        <CharString name="uni1E41">
          endchar
        </CharString>
        <CharString name="uni1E42">
          endchar
        </CharString>
        <CharString name="uni1E43">
          endchar
        </CharString>
        <CharString name="uni1E44">
          endchar
        </CharString>
        <CharString name="uni1E45">
          endchar
        </CharString>
        <CharString name="uni1E46">
          endchar
        </CharString>
        <CharString name="uni1E47">
          endchar
        </CharString>
        <CharString name="uni1E48">
          endchar
        </CharString>
        <CharString name="uni1E49">
          endchar
        </CharString>
        <CharString name="uni1E52">
          endchar
        </CharString>
        <CharString name="uni1E53">
          endchar
        </CharString>
        <CharString name="uni1E58">
          endchar
        </CharString>
        <CharString name="uni1E59">
          endchar
        </CharString>
        <CharString name="uni1E5A">
          endchar
        </CharString>
        <CharString name="uni1E5B">
          endchar
        </CharString>
        <CharString name="uni1E5C">
          endchar
        </CharString>
        <CharString name="uni1E5D">
          endchar
        </CharString>
        <CharString name="uni1E5E">
          endchar
        </CharString>
        <CharString name="uni1E5F">
          endchar
        </CharString>
        <CharString name="uni1E60">
          endchar
        </CharString>
        <CharString name="uni1E61">
          endchar
        </CharString>
        <CharString name="uni1E62">
          endchar
        </CharString>
        <CharString name="uni1E63">
          endchar
        </CharString>
        <CharString name="uni1E6C">
          endchar
        </CharString>
        <CharString name="uni1E6D">
          endchar
        </CharString>
        <CharString name="uni1E6E">
          endchar
        </CharString>
        <CharString name="uni1E6F">
          endchar
        </CharString>
        <CharString name="uni1E8E">
          endchar
        </CharString>
        <CharString name="uni1E8F">
          endchar
        </CharString>
        <CharString name="uni1E92">
          endchar
        </CharString>
        <CharString name="uni1E93">
          endchar
        </CharString>
        <CharString name="uni1E94">
          endchar
        </CharString>
        <CharString name="uni1E95">
          endchar
        </CharString>
        <CharString name="uni1E96">
          endchar
        </CharString>
        <CharString name="uni1E97">
          endchar
        </CharString>
        <CharString name="uni1E9E">
          endchar
        </CharString>
        <CharString name="uni1EA0">
          endchar
        </CharString>
        <CharString name="uni1EA1">
          endchar
        </CharString>
        <CharString name="uni1EA1.a">
          endchar
        </CharString>
        <CharString name="uni1EA2">
          endchar
        </CharString>
        <CharString name="uni1EA3">
          endchar
        </CharString>
        <CharString name="uni1EA3.a">
          endchar
        </CharString>
        <CharString name="uni1EA4">
          endchar
        </CharString>
        <CharString name="uni1EA5">
          endchar
        </CharString>
        <CharString name="uni1EA5.a">
          endchar
        </CharString>
        <CharString name="uni1EA6">
          endchar
        </CharString>
        <CharString name="uni1EA7">
          endchar
        </CharString>
        <CharString name="uni1EA7.a">
          endchar
        </CharString>
        <CharString name="uni1EA8">
          endchar
        </CharString>
        <CharString name="uni1EA9">
          endchar
        </CharString>
        <CharString name="uni1EA9.a">
          endchar
        </CharString>
        <CharString name="uni1EAA">
          endchar
        </CharString>
        <CharString name="uni1EAB">
          endchar
        </CharString>
        <CharString name="uni1EAB.a">
          endchar
        </CharString>
        <CharString name="uni1EAC">
          endchar
        </CharString>
        <CharString name="uni1EAD">
          endchar
        </CharString>
        <CharString name="uni1EAD.a">
          endchar
        </CharString>
        <CharString name="uni1EAE">
          endchar
        </CharString>
        <CharString name="uni1EAF">
          endchar
        </CharString>
        <CharString name="uni1EAF.a">
          endchar
        </CharString>
        <CharString name="uni1EB0">
          endchar
        </CharString>
        <CharString name="uni1EB1">
          endchar
        </CharString>
        <CharString name="uni1EB1.a">
          endchar
        </CharString>
        <CharString name="uni1EB2">
          endchar
        </CharString>
        <CharString name="uni1EB3">
          endchar
        </CharString>
        <CharString name="uni1EB3.a">
          endchar
        </CharString>
        <CharString name="uni1EB4">
          endchar
        </CharString>
        <CharString name="uni1EB5">
          endchar
        </CharString>
        <CharString name="uni1EB5.a">
          endchar
        </CharString>
        <CharString name="uni1EB6">
          endchar
        </CharString>
        <CharString name="uni1EB7">
          endchar
        </CharString>
        <CharString name="uni1EB7.a">
          endchar
        </CharString>
        <CharString name="uni1EB8">
          endchar
        </CharString>
        <CharString name="uni1EB9">
          endchar
        </CharString>
        <CharString name="uni1EBA">
          endchar
        </CharString>
        <CharString name="uni1EBB">
          endchar
        </CharString>
        <CharString name="uni1EBC">
          endchar
        </CharString>
        <CharString name="uni1EBD">
          endchar
        </CharString>
        <CharString name="uni1EBE">
          endchar
        </CharString>
        <CharString name="uni1EBF">
          endchar
        </CharString>
        <CharString name="uni1EC0">
          endchar
        </CharString>
        <CharString name="uni1EC1">
          endchar
        </CharString>
        <CharString name="uni1EC2">
          endchar
        </CharString>
        <CharString name="uni1EC3">
          endchar
        </CharString>
        <CharString name="uni1EC4">
          endchar
        </CharString>
        <CharString name="uni1EC5">
          endchar
        </CharString>
        <CharString name="uni1EC6">
          endchar
        </CharString>
        <CharString name="uni1EC7">
          endchar
        </CharString>
        <CharString name="uni1EC8">
          endchar
        </CharString>
        <CharString name="uni1EC8.a">
          endchar
        </CharString>
        <CharString name="uni1EC9">
          endchar
        </CharString>
        <CharString name="uni1ECA">
          endchar
        </CharString>
        <CharString name="uni1ECA.a">
          endchar
        </CharString>
        <CharString name="uni1ECB">
          endchar
        </CharString>
        <CharString name="uni1ECC">
          endchar
        </CharString>
        <CharString name="uni1ECD">
          endchar
        </CharString>
        <CharString name="uni1ECE">
          endchar
        </CharString>
        <CharString name="uni1ECF">
          endchar
        </CharString>
        <CharString name="uni1ED0">
          endchar
        </CharString>
        <CharString name="uni1ED1">
          endchar
        </CharString>
        <CharString name="uni1ED2">
          endchar
        </CharString>
        <CharString name="uni1ED3">
          endchar
        </CharString>
        <CharString name="uni1ED4">
          endchar
        </CharString>
        <CharString name="uni1ED5">
          endchar
        </CharString>
        <CharString name="uni1ED6">
          endchar
        </CharString>
        <CharString name="uni1ED7">
          endchar
        </CharString>
        <CharString name="uni1ED8">
          endchar
        </CharString>
        <CharString name="uni1ED9">
          endchar
        </CharString>
        <CharString name="uni1EDA">
          endchar
        </CharString>
        <CharString name="uni1EDB">
          endchar
        </CharString>
        <CharString name="uni1EDC">
          endchar
        </CharString>
        <CharString name="uni1EDD">
          endchar
        </CharString>
        <CharString name="uni1EDE">
          endchar
        </CharString>
        <CharString name="uni1EDF">
          endchar
        </CharString>
        <CharString name="uni1EE0">
          endchar
        </CharString>
        <CharString name="uni1EE1">
          endchar
        </CharString>
        <CharString name="uni1EE2">
          endchar
        </CharString>
        <CharString name="uni1EE3">
          endchar
        </CharString>
        <CharString name="uni1EE4">
          endchar
        </CharString>
        <CharString name="uni1EE5">
          endchar
        </CharString>
        <CharString name="uni1EE6">
          endchar
        </CharString>
        <CharString name="uni1EE7">
          endchar
        </CharString>
        <CharString name="uni1EE8">
          endchar
        </CharString>
        <CharString name="uni1EE9">
          endchar
        </CharString>
        <CharString name="uni1EEA">
          endchar
        </CharString>
        <CharString name="uni1EEB">
          endchar
        </CharString>
        <CharString name="uni1EEC">
          endchar
        </CharString>
        <CharString name="uni1EED">
          endchar
        </CharString>
        <CharString name="uni1EEE">
          endchar
        </CharString>
        <CharString name="uni1EEF">
          endchar
        </CharString>
        <CharString name="uni1EF0">
          endchar
        </CharString>
        <CharString name="uni1EF1">
          endchar
        </CharString>
        <CharString name="uni1EF4">
          endchar
        </CharString>
        <CharString name="uni1EF5">
          endchar
        </CharString>
        <CharString name="uni1EF6">
          endchar
        </CharString>
        <CharString name="uni1EF7">
          endchar
        </CharString>
        <CharString name="uni1EF8">
          endchar
        </CharString>
        <CharString name="uni1EF9">
          endchar
        </CharString>
        <CharString name="uni1F00">
          endchar
        </CharString>
        <CharString name="uni1F01">
          endchar
        </CharString>
        <CharString name="uni1F02">
          endchar
        </CharString>
        <CharString name="uni1F03">
          endchar
        </CharString>
        <CharString name="uni1F04">
          endchar
        </CharString>
        <CharString name="uni1F05">
          endchar
        </CharString>
        <CharString name="uni1F06">
          endchar
        </CharString>
        <CharString name="uni1F07">
          endchar
        </CharString>
        <CharString name="uni1F08">
          endchar
        </CharString>
        <CharString name="uni1F09">
          endchar
        </CharString>
        <CharString name="uni1F0A">
          endchar
        </CharString>
        <CharString name="uni1F0B">
          endchar
        </CharString>
        <CharString name="uni1F0C">
          endchar
        </CharString>
        <CharString name="uni1F0D">
          endchar
        </CharString>
        <CharString name="uni1F0E">
          endchar
        </CharString>
        <CharString name="uni1F0F">
          endchar
        </CharString>
        <CharString name="uni1F10">
          endchar
        </CharString>
        <CharString name="uni1F11">
          endchar
        </CharString>
        <CharString name="uni1F12">
          endchar
        </CharString>
        <CharString name="uni1F13">
          endchar
        </CharString>
        <CharString name="uni1F14">
          endchar
        </CharString>
        <CharString name="uni1F15">
          endchar
        </CharString>
        <CharString name="uni1F18">
          endchar
        </CharString>
        <CharString name="uni1F19">
          endchar
        </CharString>
        <CharString name="uni1F1A">
          endchar
        </CharString>
        <CharString name="uni1F1B">
          endchar
        </CharString>
        <CharString name="uni1F1C">
          endchar
        </CharString>
        <CharString name="uni1F1D">
          endchar
        </CharString>
        <CharString name="uni1F20">
          endchar
        </CharString>
        <CharString name="uni1F21">
          endchar
        </CharString>
        <CharString name="uni1F22">
          endchar
        </CharString>
        <CharString name="uni1F23">
          endchar
        </CharString>
        <CharString name="uni1F24">
          endchar
        </CharString>
        <CharString name="uni1F25">
          endchar
        </CharString>
        <CharString name="uni1F26">
          endchar
        </CharString>
        <CharString name="uni1F27">
          endchar
        </CharString>
        <CharString name="uni1F28">
          endchar
        </CharString>
        <CharString name="uni1F29">
          endchar
        </CharString>
        <CharString name="uni1F2A">
          endchar
        </CharString>
        <CharString name="uni1F2B">
          endchar
        </CharString>
        <CharString name="uni1F2C">
          endchar
        </CharString>
        <CharString name="uni1F2D">
          endchar
        </CharString>
        <CharString name="uni1F2E">
          endchar
        </CharString>
        <CharString name="uni1F2F">
          endchar
        </CharString>
        <CharString name="uni1F30">
          endchar
        </CharString>
        <CharString name="uni1F31">
          endchar
        </CharString>
        <CharString name="uni1F32">
          endchar
        </CharString>
        <CharString name="uni1F33">
          endchar
        </CharString>
        <CharString name="uni1F34">
          endchar
        </CharString>
        <CharString name="uni1F35">
          endchar
        </CharString>
        <CharString name="uni1F36">
          endchar
        </CharString>
        <CharString name="uni1F37">
          endchar
        </CharString>
        <CharString name="uni1F38">
          endchar
        </CharString>
        <CharString name="uni1F39">
          endchar
        </CharString>
        <CharString name="uni1F3A">
          endchar
        </CharString>
        <CharString name="uni1F3B">
          endchar
        </CharString>
        <CharString name="uni1F3C">
          endchar
        </CharString>
        <CharString name="uni1F3D">
          endchar
        </CharString>
        <CharString name="uni1F3E">
          endchar
        </CharString>
        <CharString name="uni1F3F">
          endchar
        </CharString>
        <CharString name="uni1F40">
          endchar
        </CharString>
        <CharString name="uni1F41">
          endchar
        </CharString>
        <CharString name="uni1F42">
          endchar
        </CharString>
        <CharString name="uni1F43">
          endchar
        </CharString>
        <CharString name="uni1F44">
          endchar
        </CharString>
        <CharString name="uni1F45">
          endchar
        </CharString>
        <CharString name="uni1F48">
          endchar
        </CharString>
        <CharString name="uni1F49">
          endchar
        </CharString>
        <CharString name="uni1F4A">
          endchar
        </CharString>
        <CharString name="uni1F4B">
          endchar
        </CharString>
        <CharString name="uni1F4C">
          endchar
        </CharString>
        <CharString name="uni1F4D">
          endchar
        </CharString>
        <CharString name="uni1F50">
          endchar
        </CharString>
        <CharString name="uni1F51">
          endchar
        </CharString>
        <CharString name="uni1F52">
          endchar
        </CharString>
        <CharString name="uni1F53">
          endchar
        </CharString>
        <CharString name="uni1F54">
          endchar
        </CharString>
        <CharString name="uni1F55">
          endchar
        </CharString>
        <CharString name="uni1F56">
          endchar
        </CharString>
        <CharString name="uni1F57">
          endchar
        </CharString>
        <CharString name="uni1F59">
          endchar
        </CharString>
        <CharString name="uni1F5B">
          endchar
        </CharString>
        <CharString name="uni1F5D">
          endchar
        </CharString>
        <CharString name="uni1F5F">
          endchar
        </CharString>
        <CharString name="uni1F60">
          endchar
        </CharString>
        <CharString name="uni1F61">
          endchar
        </CharString>
        <CharString name="uni1F62">
          endchar
        </CharString>
        <CharString name="uni1F63">
          endchar
        </CharString>
        <CharString name="uni1F64">
          endchar
        </CharString>
        <CharString name="uni1F65">
          endchar
        </CharString>
        <CharString name="uni1F66">
          endchar
        </CharString>
        <CharString name="uni1F67">
          endchar
        </CharString>
        <CharString name="uni1F68">
          endchar
        </CharString>
        <CharString name="uni1F69">
          endchar
        </CharString>
        <CharString name="uni1F6A">
          endchar
        </CharString>
        <CharString name="uni1F6B">
          endchar
        </CharString>
        <CharString name="uni1F6C">
          endchar
        </CharString>
        <CharString name="uni1F6D">
          endchar
        </CharString>
        <CharString name="uni1F6E">
          endchar
        </CharString>
        <CharString name="uni1F6F">
          endchar
        </CharString>
        <CharString name="uni1F70">
          endchar
        </CharString>
        <CharString name="uni1F71">
          endchar
        </CharString>
        <CharString name="uni1F72">
          endchar
        </CharString>
        <CharString name="uni1F73">
          endchar
        </CharString>
        <CharString name="uni1F74">
          endchar
        </CharString>
        <CharString name="uni1F75">
          endchar
        </CharString>
        <CharString name="uni1F76">
          endchar
        </CharString>
        <CharString name="uni1F77">
          endchar
        </CharString>
        <CharString name="uni1F78">
          endchar
        </CharString>
        <CharString name="uni1F79">
          endchar
        </CharString>
        <CharString name="uni1F7A">
          endchar
        </CharString>
        <CharString name="uni1F7B">
          endchar
        </CharString>
        <CharString name="uni1F7C">
          endchar
        </CharString>
        <CharString name="uni1F7D">
          endchar
        </CharString>
        <CharString name="uni1F80">
          endchar
        </CharString>
        <CharString name="uni1F81">
          endchar
        </CharString>
        <CharString name="uni1F82">
          endchar
        </CharString>
        <CharString name="uni1F83">
          endchar
        </CharString>
        <CharString name="uni1F84">
          endchar
        </CharString>
        <CharString name="uni1F85">
          endchar
        </CharString>
        <CharString name="uni1F86">
          endchar
        </CharString>
        <CharString name="uni1F87">
          endchar
        </CharString>
        <CharString name="uni1F88">
          endchar
        </CharString>
        <CharString name="uni1F89">
          endchar
        </CharString>
        <CharString name="uni1F8A">
          endchar
        </CharString>
        <CharString name="uni1F8B">
          endchar
        </CharString>
        <CharString name="uni1F8C">
          endchar
        </CharString>
        <CharString name="uni1F8D">
          endchar
        </CharString>
        <CharString name="uni1F8E">
          endchar
        </CharString>
        <CharString name="uni1F8F">
          endchar
        </CharString>
        <CharString name="uni1F90">
          endchar
        </CharString>
        <CharString name="uni1F91">
          endchar
        </CharString>
        <CharString name="uni1F92">
          endchar
        </CharString>
        <CharString name="uni1F93">
          endchar
        </CharString>
        <CharString name="uni1F94">
          endchar
        </CharString>
        <CharString name="uni1F95">
          endchar
        </CharString>
        <CharString name="uni1F96">
          endchar
        </CharString>
        <CharString name="uni1F97">
          endchar
        </CharString>
        <CharString name="uni1F98">
          endchar
        </CharString>
        <CharString name="uni1F99">
          endchar
        </CharString>
        <CharString name="uni1F9A">
          endchar
        </CharString>
        <CharString name="uni1F9B">
          endchar
        </CharString>
        <CharString name="uni1F9C">
          endchar
        </CharString>
        <CharString name="uni1F9D">
          endchar
        </CharString>
        <CharString name="uni1F9E">
          endchar
        </CharString>
        <CharString name="uni1F9F">
          endchar
        </CharString>
        <CharString name="uni1FA0">
          endchar
        </CharString>
        <CharString name="uni1FA1">
          endchar
        </CharString>
        <CharString name="uni1FA2">
          endchar
        </CharString>
        <CharString name="uni1FA3">
          endchar
        </CharString>
        <CharString name="uni1FA4">
          endchar
        </CharString>
        <CharString name="uni1FA5">
          endchar
        </CharString>
        <CharString name="uni1FA6">
          endchar
        </CharString>
        <CharString name="uni1FA7">
          endchar
        </CharString>
        <CharString name="uni1FA8">
          endchar
        </CharString>
        <CharString name="uni1FA9">
          endchar
        </CharString>
        <CharString name="uni1FAA">
          endchar
        </CharString>
        <CharString name="uni1FAB">
          endchar
        </CharString>
        <CharString name="uni1FAC">
          endchar
        </CharString>
        <CharString name="uni1FAD">
          endchar
        </CharString>
        <CharString name="uni1FAE">
          endchar
        </CharString>
        <CharString name="uni1FAF">
          endchar
        </CharString>
        <CharString name="uni1FB0">
          endchar
        </CharString>
        <CharString name="uni1FB1">
          endchar
        </CharString>
        <CharString name="uni1FB2">
          endchar
        </CharString>
        <CharString name="uni1FB3">
          endchar
        </CharString>
        <CharString name="uni1FB4">
          endchar
        </CharString>
        <CharString name="uni1FB6">
          endchar
        </CharString>
        <CharString name="uni1FB7">
          endchar
        </CharString>
        <CharString name="uni1FB8">
          endchar
        </CharString>
        <CharString name="uni1FB9">
          endchar
        </CharString>
        <CharString name="uni1FBA">
          endchar
        </CharString>
        <CharString name="uni1FBB">
          endchar
        </CharString>
        <CharString name="uni1FBC">
          endchar
        </CharString>
        <CharString name="uni1FBD">
          endchar
        </CharString>
        <CharString name="uni1FBD.cap">
          endchar
        </CharString>
        <CharString name="uni1FBE">
          endchar
        </CharString>
        <CharString name="uni1FBF">
          endchar
        </CharString>
        <CharString name="uni1FC0">
          endchar
        </CharString>
        <CharString name="uni1FC1">
          endchar
        </CharString>
        <CharString name="uni1FC2">
          endchar
        </CharString>
        <CharString name="uni1FC3">
          endchar
        </CharString>
        <CharString name="uni1FC4">
          endchar
        </CharString>
        <CharString name="uni1FC6">
          endchar
        </CharString>
        <CharString name="uni1FC7">
          endchar
        </CharString>
        <CharString name="uni1FC8">
          endchar
        </CharString>
        <CharString name="uni1FC9">
          endchar
        </CharString>
        <CharString name="uni1FCA">
          endchar
        </CharString>
        <CharString name="uni1FCB">
          endchar
        </CharString>
        <CharString name="uni1FCC">
          endchar
        </CharString>
        <CharString name="uni1FCD">
          endchar
        </CharString>
        <CharString name="uni1FCD.cap">
          endchar
        </CharString>
        <CharString name="uni1FCE">
          endchar
        </CharString>
        <CharString name="uni1FCE.cap">
          endchar
        </CharString>
        <CharString name="uni1FCF">
          endchar
        </CharString>
        <CharString name="uni1FCF.cap">
          endchar
        </CharString>
        <CharString name="uni1FD0">
          endchar
        </CharString>
        <CharString name="uni1FD1">
          endchar
        </CharString>
        <CharString name="uni1FD2">
          endchar
        </CharString>
        <CharString name="uni1FD3">
          endchar
        </CharString>
        <CharString name="uni1FD6">
          endchar
        </CharString>
        <CharString name="uni1FD7">
          endchar
        </CharString>
        <CharString name="uni1FD8">
          endchar
        </CharString>
        <CharString name="uni1FD9">
          endchar
        </CharString>
        <CharString name="uni1FDA">
          endchar
        </CharString>
        <CharString name="uni1FDB">
          endchar
        </CharString>
        <CharString name="uni1FDD">
          endchar
        </CharString>
        <CharString name="uni1FDD.cap">
          endchar
        </CharString>
        <CharString name="uni1FDE">
          endchar
        </CharString>
        <CharString name="uni1FDE.cap">
          endchar
        </CharString>
        <CharString name="uni1FDF">
          endchar
        </CharString>
        <CharString name="uni1FDF.cap">
          endchar
        </CharString>
        <CharString name="uni1FE0">
          endchar
        </CharString>
        <CharString name="uni1FE1">
          endchar
        </CharString>
        <CharString name="uni1FE2">
          endchar
        </CharString>
        <CharString name="uni1FE3">
          endchar
        </CharString>
        <CharString name="uni1FE4">
          endchar
        </CharString>
        <CharString name="uni1FE5">
          endchar
        </CharString>
        <CharString name="uni1FE6">
          endchar
        </CharString>
        <CharString name="uni1FE7">
          endchar
        </CharString>
        <CharString name="uni1FE8">
          endchar
        </CharString>
        <CharString name="uni1FE9">
          endchar
        </CharString>
        <CharString name="uni1FEA">
          endchar
        </CharString>
        <CharString name="uni1FEB">
          endchar
        </CharString>
        <CharString name="uni1FEC">
          endchar
        </CharString>
        <CharString name="uni1FED">
          endchar
        </CharString>
        <CharString name="uni1FEE">
          endchar
        </CharString>
        <CharString name="uni1FEF">
          endchar
        </CharString>
        <CharString name="uni1FEF.cap">
          endchar
        </CharString>
        <CharString name="uni1FF2">
          endchar
        </CharString>
        <CharString name="uni1FF3">
          endchar
        </CharString>
        <CharString name="uni1FF4">
          endchar
        </CharString>
        <CharString name="uni1FF6">
          endchar
        </CharString>
        <CharString name="uni1FF7">
          endchar
        </CharString>
        <CharString name="uni1FF8">
          endchar
        </CharString>
        <CharString name="uni1FF9">
          endchar
        </CharString>
        <CharString name="uni1FFA">
          endchar
        </CharString>
        <CharString name="uni1FFB">
          endchar
        </CharString>
        <CharString name="uni1FFC">
          endchar
        </CharString>
        <CharString name="uni1FFD">
          endchar
        </CharString>
        <CharString name="uni1FFD.cap">
          endchar
        </CharString>
        <CharString name="uni1FFE">
          endchar
        </CharString>
        <CharString name="uni1FFE.cap">
          endchar
        </CharString>
        <CharString name="uni2116">
          endchar
        </CharString>
        <CharString name="uogonek">
          endchar
        </CharString>
        <CharString name="upsilon">
          endchar
        </CharString>
        <CharString name="upsilondieresis">
          endchar
        </CharString>
        <CharString name="upsilondieresistonos">
          endchar
        </CharString>
        <CharString name="upsilontonos">
          endchar
        </CharString>
        <CharString name="uring">
          endchar
        </CharString>
        <CharString name="utilde">
          endchar
        </CharString>
        <CharString name="v">
          endchar
        </CharString>
        <CharString name="w">
          endchar
        </CharString>
        <CharString name="wacute">
          endchar
        </CharString>
        <CharString name="wcircumflex">
          endchar
        </CharString>
        <CharString name="wdieresis">
          endchar
        </CharString>
        <CharString name="wgrave">
          endchar
        </CharString>
        <CharString name="x">
          endchar
        </CharString>
        <CharString name="xi">
          endchar
        </CharString>
        <CharString name="y">
          endchar
        </CharString>
        <CharString name="yacute">
          endchar
        </CharString>
        <CharString name="ycircumflex">
          endchar
        </CharString>
        <CharString name="ydieresis">
          endchar
        </CharString>
        <CharString name="ygrave">
          endchar
        </CharString>
        <CharString name="z">
          endchar
        </CharString>
        <CharString name="zacute">
          endchar
        </CharString>
        <CharString name="zcaron">
          endchar
        </CharString>
        <CharString name="zdotaccent">
          endchar
        </CharString>
        <CharString name="zero">
          endchar
        </CharString>
        <CharString name="zero.0">
          endchar
        </CharString>
        <CharString name="zero.0p">
          endchar
        </CharString>
        <CharString name="zero.0ps">
          endchar
        </CharString>
        <CharString name="zero.0s">
          endchar
        </CharString>
        <CharString name="zero.cap">
          endchar
        </CharString>
        <CharString name="zero.onum">
          endchar
        </CharString>
        <CharString name="zero.pnum">
          endchar
        </CharString>
        <CharString name="zero.tnum">
          endchar
        </CharString>
        <CharString name="zeta">
          endchar
        </CharString>
      <CharString index="0">
        24 73 21 72 20 76 rrcurveto
        4 hlineto
        21 -76 21 -72 24 -73 31 -100 rcurveline
        -197 hlineto
        -169 -267 rmoveto
        85 hlineto
        63 200 rlineto
        239 hlineto
        62 -200 rlineto
        89 hlineto
        -102 callgsubr
        return
      </CharString>
      <CharString index="1">
        vstem
        -107 callsubr
        return
      </CharString>
      <CharString index="2">
        rmoveto
        152 115 -47 55 -142 -128 rlineto
        endchar
      </CharString>
      <CharString index="3">
        vstem
        274 -12 rmoveto
        58 55 23 39 44 hvcurveto
        -105 callsubr
        -161 99 -93 129 hvcurveto
        return
      </CharString>
      <CharString index="4">
        -99 callgsubr
        -96 callgsubr
        return
      </CharString>
      <CharString index="5">
        -222 656 rlineto
        -94 hlineto
        return
      </CharString>
      <CharString index="6">
        264 0 71 120 67 51 -100 callsubr
        -66 66 hstemhm
        401 84 hintmask 11110100
        290 376 rmoveto
        hintmask 11101100
        -97 callgsubr
        hintmask 11110100
        206 278 70 -411 vlineto
        return
      </CharString>
      <CharString index="7">
        rlineto
        4 hlineto
        return
      </CharString>
      <CharString index="8">
        -14 -103 callsubr
        return
      </CharString>
      <CharString index="9">
        -102 -91 callgsubr
        -104 callgsubr
        return
      </CharString>
      <CharString index="10">
        36 71 36 72 35 71 rrcurveto
        4 -332 -172 hlineto
        -221 -258 rmoveto
        88 hlineto
        99 191 rlineto
        206 -191 372 71 -288 238 232 71 -232 hlineto
        return
      </CharString>
      <CharString index="11">
        hstem
        3 538 -106 callgsubr
        return
      </CharString>
      <CharString index="12">
        68 374 68 return
      </CharString>
      <CharString index="13">
        7 50 rlineto
        3 hlineto
        -39 43 51 -23 -97 callsubr
        255 vlineto
        43 46 43 -92 callgsubr
        return
      </CharString>
      <CharString index="14">
        rmoveto
        57 hlineto
        11 378 2 94 rlineto
        -83 hlineto
        2 -94 rlineto
        return
      </CharString>
      <CharString index="15">
        23 41 hhcurveto
        92 36 -72 -107 -120 -59 -73 -80 hvcurveto
        return
      </CharString>
      <CharString index="16">
        -12 -90 callgsubr
        return
      </CharString>
      <CharString index="17">
        -95 callgsubr
        hstem
        46 85 return
      </CharString>
      <CharString index="18">
        -27 26 -32 -33 -27 -26 return
      </CharString>
      <CharString index="19">
        -12 -101 callsubr
        return
      </CharString>
</ttFont>
